<svg id="Layer_1" data-name="Layer 1" xmlns="http://www.w3.org/2000/svg" width="36" height="36" viewBox="0 0 36 36"><defs><style>.cls-1{fill:#add036;}.cls-2{fill:#0095d3;}</style></defs><title>KS</title><path class="cls-1" d="M4.61,9.94H3a1,1,0,1,0,0,2H5.19A16.78,16.78,0,0,1,4.61,9.94Z"/><path class="cls-1" d="M7.93,25.08V16.31a10.18,10.18,0,0,1-2-2.69V25.91l4.16,4.16H19v-2H10.92Z"/><path class="cls-2" d="M32,33a1,1,0,0,1-.74-.32l-3.64-4-3.65,4a1,1,0,0,1-1.1.26,1,1,0,0,1-.63-.94V28.71a6.44,6.44,0,0,1,2.85-5.36,6.09,6.09,0,0,0-5.23-4.41l-2.28,2.27a1,1,0,0,1-1.41,0,6.22,6.22,0,0,1-1.64-2.84A12,12,0,0,1,6,6.87a1,1,0,0,1,1-1h9.67A13,13,0,0,1,20,6.29a8.79,8.79,0,0,1,11.18,1,1,1,0,0,1,0,1.43L27.87,12A13.14,13.14,0,0,1,30,19.18v4.08a6.47,6.47,0,0,1,3,5.45V32a1,1,0,0,1-.64.94A1.13,1.13,0,0,1,32,33ZM27.59,26.2a1,1,0,0,1,.73.32L31,29.4v-.69a4.49,4.49,0,0,0-2.45-4,1,1,0,0,1-.55-.89V19.18a11.22,11.22,0,0,0-2.2-6.69,1,1,0,0,1,.09-1.3L29,8.09a6.77,6.77,0,0,0-8.2.08,1,1,0,0,1-.9.17,11.31,11.31,0,0,0-3.2-.46H8a10,10,0,0,0,7.55,8.72,1,1,0,0,1,.75.81,4.23,4.23,0,0,0,.59,1.6l1.8-1.81a1,1,0,0,1,.74-.29,8.11,8.11,0,0,1,7.71,6.76,1,1,0,0,1-.53,1,4.48,4.48,0,0,0-2.44,4v.69l2.64-2.88A1,1,0,0,1,27.59,26.2Z"/><path class="cls-2" d="M9.42,14.55H9.33a1,1,0,0,1-.9-1.09,3.69,3.69,0,0,1,3.69-3.35H17.3a1,1,0,0,1,0,2H12.12a1.69,1.69,0,0,0-1.7,1.54A1,1,0,0,1,9.42,14.55Z"/><path class="cls-2" d="M22.66,9.47a1,1,0,0,1-.5-.13A11.24,11.24,0,0,0,16.6,7.87a1,1,0,1,1,0-2A13.28,13.28,0,0,1,23.15,7.6a1,1,0,0,1-.49,1.87Z"/><path class="cls-1" d="M33.33,24A5.92,5.92,0,0,1,34,25s0-.06,0-.1A1,1,0,0,0,33.33,24Z"/><path class="cls-1" d="M19,4.19V3a1,1,0,0,0-2,0V4A14.44,14.44,0,0,1,19,4.19Z"/><path class="cls-1" d="M26.06,3.29V3a1,1,0,0,0-2,0v.26A6.35,6.35,0,0,1,26.06,3.29Z"/><path class="cls-1" d="M12.13,4V3a1,1,0,1,0-2,0V4Z"/><path class="cls-1" d="M33,17H31.56v2H33a1,1,0,0,0,0-2Z"/><path class="cls-1" d="M32.37,9.94l-1.89,2H33a1,1,0,0,0,0-2Z"/><path class="cls-1" d="M18,28.33a1,1,0,0,0-1,1V33a1,1,0,0,0,2,0V29.33A1,1,0,0,0,18,28.33Z"/><path class="cls-1" d="M24.39,33.7a1,1,0,0,0,.67.27,1,1,0,0,0,1-1V32Z"/><path class="cls-1" d="M11.13,28.21a1,1,0,0,0-1,1V33a1,1,0,0,0,2,0V29.21A1,1,0,0,0,11.13,28.21Z"/><path class="cls-1" d="M6.84,17H3a1,1,0,0,0,0,2H6.84a1,1,0,0,0,0-2Z"/><path class="cls-1" d="M6.34,23.87H3a1,1,0,0,0,0,2H6.34a1,1,0,0,0,0-2Z"/></svg>