<svg id="Layer_1" data-name="Layer 1" xmlns="http://www.w3.org/2000/svg" width="668" height="255" viewBox="0 0 668 255"><defs><style>.cls-1{fill:#61717d;}.cls-2{fill:#add036;}.cls-3{fill:#0095d3;}</style></defs><title>KS</title><path class="cls-1" d="M254.91,111.33h7V126.4l13.29-15.07h8.57L271,125.59l13.73,18.61h-8.57l-10.09-13.59L262,135v9.19h-7Z"/><path class="cls-1" d="M295.19,117.69v6.56h16.5v6.36h-16.5v7.22h18.22v6.37h-25.3V111.33h25.3v6.36Z"/><path class="cls-1" d="M338.52,144.2,331,133.53H325.8V144.2h-7V111.33h14.78c7.12,0,12.39,4.59,12.39,11.1a10.68,10.68,0,0,1-7.47,10.28l8.09,11.49ZM325.8,127.07h7c3.49,0,5.89-1.82,5.89-4.64s-2.4-4.64-5.89-4.64h-7Z"/><path class="cls-1" d="M351.48,111.33h7l15.84,21.24V111.33h7.08V144.2h-7.08L358.51,123V144.2h-7Z"/><path class="cls-1" d="M395.29,117.69v6.56H411.8v6.36H395.29v7.22h18.23v6.37H388.21V111.33h25.31v6.36Z"/><path class="cls-1" d="M442.07,137.83v6.37H418.63V111.33h7.08v26.5Z"/><path class="cls-1" d="M444.46,139.32l4.07-4.84a16.19,16.19,0,0,0,10.81,4.31c3.54,0,5.35-1.63,5.35-3.68,0-2.35-1.91-3.07-6.93-4.21-6.94-1.58-11.87-3.54-11.87-9.9,0-6.08,5-10.24,12.15-10.24a19,19,0,0,1,12.87,4.54l-3.68,5.07a15.26,15.26,0,0,0-9.38-3.63c-3,0-4.83,1.58-4.83,3.54,0,2.39,2,3.15,7,4.3,7.08,1.58,11.77,3.69,11.77,9.76,0,6.27-4.73,10.43-12.77,10.43A21.11,21.11,0,0,1,444.46,139.32Z"/><path class="cls-1" d="M505.92,111.33V144.2h-7V130.61h-15V144.2h-7V111.33h7v12.92h15V111.33Z"/><path class="cls-1" d="M534.43,139H519.79l-2.1,5.17h-7.9l13.4-32.87h7.89l13.4,32.87h-7.94Zm-2.44-6-4.88-12-4.88,12Z"/><path class="cls-1" d="M568.1,144.2l-7.51-10.67h-5.21V144.2h-7V111.33h14.78c7.12,0,12.39,4.59,12.39,11.1a10.68,10.68,0,0,1-7.47,10.28l8.09,11.49Zm-12.72-17.13h7c3.49,0,5.89-1.82,5.89-4.64s-2.4-4.64-5.89-4.64h-7Z"/><path class="cls-1" d="M581,111.33h7V126.4l13.3-15.07h8.57l-12.82,14.26,13.72,18.61h-8.56l-10.09-13.59L588,135v9.19h-7Z"/><path class="cls-2" d="M108.38,127.29a3.14,3.14,0,0,1-3.14-3.14V117a3.14,3.14,0,0,1,6.27,0v7.11A3.13,3.13,0,0,1,108.38,127.29Z"/><path class="cls-2" d="M96.87,147.94a3.13,3.13,0,0,1-3.13-3.13v-7.12a3.14,3.14,0,0,1,6.27,0v7.12A3.13,3.13,0,0,1,96.87,147.94Z"/><path class="cls-2" d="M109.3,162.18a3.14,3.14,0,0,1-3.13-3.14v-3.88a3.14,3.14,0,1,1,6.27,0V159A3.14,3.14,0,0,1,109.3,162.18Z"/><path class="cls-2" d="M152.29,146.8a3.15,3.15,0,0,1-3.14-3.14v-9.55a3.14,3.14,0,1,1,6.28,0v9.55A3.15,3.15,0,0,1,152.29,146.8Z"/><path class="cls-2" d="M144.83,178.74a3.13,3.13,0,0,1-3.14-3.13v-7.38a3.14,3.14,0,0,1,6.27,0v7.38A3.13,3.13,0,0,1,144.83,178.74Z"/><path class="cls-2" d="M123.34,148.74a3.14,3.14,0,0,1-3.14-3.14v-6.78a3.14,3.14,0,0,1,6.28,0v6.78A3.14,3.14,0,0,1,123.34,148.74Z"/><path class="cls-2" d="M123.34,180a3.15,3.15,0,0,1-3.14-3.14V161.12a3.14,3.14,0,1,1,6.28,0v15.74A3.15,3.15,0,0,1,123.34,180Z"/><path class="cls-2" d="M138.06,155.42a3.14,3.14,0,0,1-3.14-3.13v-3.72a3.14,3.14,0,0,1,6.28,0v3.72A3.14,3.14,0,0,1,138.06,155.42Z"/><path class="cls-3" d="M202.28,193a3.14,3.14,0,0,1-2.31-1l-18.7-20.34L162.58,192a3.14,3.14,0,0,1-5.45-2.12V174.3a29.4,29.4,0,0,1,14-25.07,31,31,0,0,0-27.63-23.54L132,137.18a3.15,3.15,0,0,1-4.39,0l-.06-.05a28.55,28.55,0,0,1-7.67-13.73A55.68,55.68,0,0,1,79.41,69.6a3.19,3.19,0,0,1,.92-2.21,3.15,3.15,0,0,1,2.23-.92h46.36A62.38,62.38,0,0,1,145,68.58a40.43,40.43,0,0,1,52.07,4.28l.12.13a3.13,3.13,0,0,1,0,4.39L180.53,94a61.6,61.6,0,0,1,10.52,34.59V149a29.39,29.39,0,0,1,14.36,25.31v15.6a3.15,3.15,0,0,1-2,2.92A3.24,3.24,0,0,1,202.28,193Zm-21-29.12a3.15,3.15,0,0,1,2.31,1l15.56,16.93V174.3a23.15,23.15,0,0,0-12.65-20.67,3.13,3.13,0,0,1-1.71-2.79V128.6a55.46,55.46,0,0,0-10.86-33.09,3.12,3.12,0,0,1,.31-4.07l16.18-16.18a34.14,34.14,0,0,0-42.84-.76,3.14,3.14,0,0,1-2.82.53,55.92,55.92,0,0,0-15.83-2.29H85.78a49.37,49.37,0,0,0,37.54,45.12,3.14,3.14,0,0,1,2.35,2.55,22.17,22.17,0,0,0,4.25,10L140,120.27a3.15,3.15,0,0,1,2.32-.92,37.28,37.28,0,0,1,35.37,31,3.12,3.12,0,0,1-1.66,3.31A23.14,23.14,0,0,0,163.4,174.3v7.55L179,164.92A3.14,3.14,0,0,1,181.27,163.91Z"/><path class="cls-3" d="M94.13,106A3.14,3.14,0,0,1,91,102.88a16.15,16.15,0,0,1,16.13-16.12H132A3.14,3.14,0,0,1,132,93H107.12a9.86,9.86,0,0,0-9.85,9.85A3.14,3.14,0,0,1,94.13,106Z"/><path class="cls-3" d="M157.64,80.38A3.09,3.09,0,0,1,156.1,80a55.9,55.9,0,0,0-27.51-7.23,3.14,3.14,0,1,1,0-6.27,62.21,62.21,0,0,1,30.6,8,3.14,3.14,0,0,1-1.55,5.87Z"/><path class="cls-2" d="M181.87,185.51h-7.38l-6.27,6.28h14.95a3.18,3.18,0,0,0,2.22-.92l5-5-4.26-4.62Z"/><path class="cls-2" d="M85.61,168v-62.2a53,53,0,0,1-6.27-12v75.48a3.12,3.12,0,0,0,.92,2.22l19.35,19.36a3.18,3.18,0,0,0,2.22.92h52.09v-6.28H103.13Z"/><path class="cls-2" d="M204.74,85.74l-3.69-3.69-4.44,4.43,2.78,2.78v.17h.09v62.12a50.08,50.08,0,0,1,6.19,6V88A3.12,3.12,0,0,0,204.74,85.74Z"/><path class="cls-2" d="M69.68,169.27h-9.5a3.14,3.14,0,0,1,0-6.28h9.5a3.14,3.14,0,0,1,0,6.28Z"/><path class="cls-2" d="M69.68,143.51h-9.5a3.14,3.14,0,0,1,0-6.27h9.5a3.14,3.14,0,0,1,0,6.27Z"/><path class="cls-2" d="M69.68,117.76h-9.5a3.14,3.14,0,0,1,0-6.27h9.5a3.14,3.14,0,0,1,0,6.27Z"/><path class="cls-2" d="M69.68,92h-9.5a3.14,3.14,0,0,1,0-6.28h9.5a3.14,3.14,0,0,1,0,6.28Z"/><path class="cls-2" d="M224.82,169.27h-9.5a3.14,3.14,0,0,1,0-6.28h9.5a3.14,3.14,0,0,1,0,6.28Z"/><path class="cls-2" d="M224.82,143.51h-9.5a3.14,3.14,0,0,1,0-6.27h9.5a3.14,3.14,0,0,1,0,6.27Z"/><path class="cls-2" d="M224.82,117.76h-9.5a3.14,3.14,0,0,1,0-6.27h9.5a3.14,3.14,0,0,1,0,6.27Z"/><path class="cls-2" d="M224.82,92h-9.5a3.14,3.14,0,0,1,0-6.28h9.5a3.14,3.14,0,0,1,0,6.28Z"/><path class="cls-2" d="M181.13,213a3.14,3.14,0,0,1-3.14-3.13v-9.5a3.14,3.14,0,0,1,6.28,0v9.5A3.14,3.14,0,0,1,181.13,213Z"/><path class="cls-2" d="M155.38,213a3.13,3.13,0,0,1-3.14-3.13v-9.5a3.14,3.14,0,0,1,6.27,0v9.5A3.13,3.13,0,0,1,155.38,213Z"/><path class="cls-2" d="M129.62,213a3.13,3.13,0,0,1-3.13-3.13v-9.5a3.14,3.14,0,0,1,6.27,0v9.5A3.13,3.13,0,0,1,129.62,213Z"/><path class="cls-2" d="M103.87,213a3.14,3.14,0,0,1-3.14-3.13v-9.5a3.14,3.14,0,0,1,6.28,0v9.5A3.14,3.14,0,0,1,103.87,213Z"/><path class="cls-2" d="M181.13,57.81A3.14,3.14,0,0,1,178,54.68v-9.5a3.14,3.14,0,0,1,6.28,0v9.5A3.14,3.14,0,0,1,181.13,57.81Z"/><path class="cls-2" d="M155.38,57.81a3.13,3.13,0,0,1-3.14-3.13v-9.5a3.14,3.14,0,0,1,6.27,0v9.5A3.13,3.13,0,0,1,155.38,57.81Z"/><path class="cls-2" d="M129.62,57.81a3.13,3.13,0,0,1-3.13-3.13v-9.5a3.14,3.14,0,0,1,6.27,0v9.5A3.13,3.13,0,0,1,129.62,57.81Z"/><path class="cls-2" d="M103.87,57.81a3.14,3.14,0,0,1-3.14-3.13v-9.5a3.14,3.14,0,0,1,6.28,0v9.5A3.14,3.14,0,0,1,103.87,57.81Z"/><path class="cls-3" d="M131.52,82.83h-8a3.14,3.14,0,1,1,0-6.28h8a3.14,3.14,0,0,1,0,6.28Z"/></svg>