<svg id="Layer_1" data-name="Layer 1" xmlns="http://www.w3.org/2000/svg" width="200" height="200" viewBox="0 0 200 200"><defs><style>.cls-1{fill:#add036;}.cls-2{fill:#0095d3;}</style></defs><title>KS</title><path class="cls-1" d="M60.07,99.76a3.67,3.67,0,0,1-3.67-3.68V87.76a3.67,3.67,0,0,1,7.34,0v8.32A3.67,3.67,0,0,1,60.07,99.76Z"/><path class="cls-1" d="M46.61,123.92a3.67,3.67,0,0,1-3.67-3.67v-8.32a3.67,3.67,0,1,1,7.34,0v8.32A3.67,3.67,0,0,1,46.61,123.92Z"/><path class="cls-1" d="M61.15,140.58a3.67,3.67,0,0,1-3.67-3.67v-4.54a3.67,3.67,0,1,1,7.34,0v4.54A3.67,3.67,0,0,1,61.15,140.58Z"/><path class="cls-1" d="M111.46,122.58a3.67,3.67,0,0,1-3.67-3.67V107.74a3.67,3.67,0,1,1,7.34,0v11.17A3.67,3.67,0,0,1,111.46,122.58Z"/><path class="cls-1" d="M102.72,160a3.68,3.68,0,0,1-3.67-3.67v-8.63a3.67,3.67,0,0,1,7.34,0v8.63A3.67,3.67,0,0,1,102.72,160Z"/><path class="cls-1" d="M77.58,124.86a3.67,3.67,0,0,1-3.67-3.67v-8a3.67,3.67,0,0,1,7.34,0v8A3.68,3.68,0,0,1,77.58,124.86Z"/><path class="cls-1" d="M77.58,161.43a3.67,3.67,0,0,1-3.67-3.67V139.34a3.67,3.67,0,1,1,7.34,0v18.42A3.67,3.67,0,0,1,77.58,161.43Z"/><path class="cls-1" d="M94.8,132.68A3.68,3.68,0,0,1,91.13,129v-4.35a3.68,3.68,0,1,1,7.35,0V129A3.68,3.68,0,0,1,94.8,132.68Z"/><path class="cls-2" d="M170,176.69a3.65,3.65,0,0,1-2.7-1.19l-21.89-23.8-21.88,23.8a3.67,3.67,0,0,1-6.37-2.48V154.77a34.39,34.39,0,0,1,16.35-29.34,36.29,36.29,0,0,0-32.33-27.54L87.7,111.32a3.67,3.67,0,0,1-5.14.06l-.07-.07a33.36,33.36,0,0,1-9-16.07,65.12,65.12,0,0,1-47.34-63,3.67,3.67,0,0,1,3.67-3.66H84.11a73,73,0,0,1,18.82,2.47,47.31,47.31,0,0,1,60.93,5l.14.15a3.67,3.67,0,0,1,0,5.14L144.51,60.81a72.13,72.13,0,0,1,12.31,40.48v23.86a34.4,34.4,0,0,1,16.81,29.62V173a3.68,3.68,0,0,1-2.34,3.42A3.61,3.61,0,0,1,170,176.69Zm-24.59-34.08a3.71,3.71,0,0,1,2.71,1.18l18.21,19.81v-8.83a27.09,27.09,0,0,0-14.81-24.19,3.67,3.67,0,0,1-2-3.27v-26a64.86,64.86,0,0,0-12.71-38.72,3.67,3.67,0,0,1,.36-4.77l18.93-18.93a40,40,0,0,0-50.13-.9,3.67,3.67,0,0,1-3.29.63,65.45,65.45,0,0,0-18.53-2.68H33.62a57.8,57.8,0,0,0,43.94,52.8,3.66,3.66,0,0,1,2.74,3,26.14,26.14,0,0,0,5,11.66L97.11,91.53a3.72,3.72,0,0,1,2.72-1.07,43.65,43.65,0,0,1,41.39,36.24,3.68,3.68,0,0,1-1.95,3.88,27.09,27.09,0,0,0-14.81,24.19v8.83l18.21-19.81A3.7,3.7,0,0,1,145.37,142.61Z"/><path class="cls-2" d="M43.39,74.86a3.67,3.67,0,0,1-3.67-3.67A18.9,18.9,0,0,1,58.6,52.32H87.65a3.67,3.67,0,0,1,0,7.34H58.6A11.55,11.55,0,0,0,47.07,71.19,3.67,3.67,0,0,1,43.39,74.86Z"/><path class="cls-2" d="M117.72,44.86a3.72,3.72,0,0,1-1.81-.48,65.3,65.3,0,0,0-32.19-8.46,3.67,3.67,0,0,1,0-7.34A72.71,72.71,0,0,1,119.53,38a3.67,3.67,0,0,1-1.81,6.87Z"/><path class="cls-1" d="M146.07,167.89h-8.63l-7.34,7.34h17.49a3.67,3.67,0,0,0,2.6-1.08l5.79-5.79L151,163Z"/><path class="cls-1" d="M33.43,147.39V74.59a62,62,0,0,1-7.34-14v88.34a3.64,3.64,0,0,0,1.07,2.59l22.65,22.65a3.67,3.67,0,0,0,2.6,1.08h61v-7.34H53.93Z"/><path class="cls-1" d="M172.84,51.13l-4.33-4.32L163.32,52l3.25,3.25v.2h.11v72.7a58,58,0,0,1,7.24,7V53.73A3.66,3.66,0,0,0,172.84,51.13Z"/><path class="cls-1" d="M14.78,148.88H3.67a3.67,3.67,0,0,1,0-7.34H14.78a3.67,3.67,0,0,1,0,7.34Z"/><path class="cls-1" d="M14.78,118.74H3.67a3.67,3.67,0,0,1,0-7.34H14.78a3.67,3.67,0,1,1,0,7.34Z"/><path class="cls-1" d="M14.78,88.6H3.67a3.67,3.67,0,0,1,0-7.34H14.78a3.67,3.67,0,1,1,0,7.34Z"/><path class="cls-1" d="M14.78,58.46H3.67a3.67,3.67,0,0,1,0-7.34H14.78a3.67,3.67,0,0,1,0,7.34Z"/><path class="cls-1" d="M196.33,148.88H185.22a3.67,3.67,0,1,1,0-7.34h11.11a3.67,3.67,0,0,1,0,7.34Z"/><path class="cls-1" d="M196.33,118.74H185.22a3.67,3.67,0,1,1,0-7.34h11.11a3.67,3.67,0,0,1,0,7.34Z"/><path class="cls-1" d="M196.33,88.6H185.22a3.67,3.67,0,1,1,0-7.34h11.11a3.67,3.67,0,0,1,0,7.34Z"/><path class="cls-1" d="M196.33,58.46H185.22a3.67,3.67,0,1,1,0-7.34h11.11a3.67,3.67,0,0,1,0,7.34Z"/><path class="cls-1" d="M145.21,200a3.67,3.67,0,0,1-3.67-3.67V185.22a3.67,3.67,0,1,1,7.34,0v11.11A3.67,3.67,0,0,1,145.21,200Z"/><path class="cls-1" d="M115.07,200a3.67,3.67,0,0,1-3.67-3.67V185.22a3.67,3.67,0,0,1,7.34,0v11.11A3.67,3.67,0,0,1,115.07,200Z"/><path class="cls-1" d="M84.93,200a3.67,3.67,0,0,1-3.67-3.67V185.22a3.67,3.67,0,1,1,7.34,0v11.11A3.67,3.67,0,0,1,84.93,200Z"/><path class="cls-1" d="M54.79,200a3.67,3.67,0,0,1-3.67-3.67V185.22a3.67,3.67,0,0,1,7.34,0v11.11A3.67,3.67,0,0,1,54.79,200Z"/><path class="cls-1" d="M145.21,18.45a3.67,3.67,0,0,1-3.67-3.67V3.67a3.67,3.67,0,1,1,7.34,0V14.78A3.67,3.67,0,0,1,145.21,18.45Z"/><path class="cls-1" d="M115.07,18.45a3.67,3.67,0,0,1-3.67-3.67V3.67a3.67,3.67,0,0,1,7.34,0V14.78A3.67,3.67,0,0,1,115.07,18.45Z"/><path class="cls-1" d="M84.93,18.45a3.67,3.67,0,0,1-3.67-3.67V3.67a3.67,3.67,0,1,1,7.34,0V14.78A3.67,3.67,0,0,1,84.93,18.45Z"/><path class="cls-1" d="M54.79,18.45a3.67,3.67,0,0,1-3.67-3.67V3.67a3.67,3.67,0,0,1,7.34,0V14.78A3.67,3.67,0,0,1,54.79,18.45Z"/><path class="cls-2" d="M87.16,47.72H77.82a3.67,3.67,0,1,1,0-7.34h9.34a3.67,3.67,0,1,1,0,7.34Z"/></svg>