<svg id="Layer_1" data-name="Layer 1" xmlns="http://www.w3.org/2000/svg" width="36" height="36" viewBox="0 0 36 36"><defs><style>.cls-1{fill:#add036;}.cls-2{fill:#0095d3;}</style></defs><title>KS</title><path class="cls-1" d="M33,19a1,1,0,0,0,0-2h-2.9V11.94H33a1,1,0,0,0,0-2h-3L26.06,6.08V3a1,1,0,0,0-2,0v2.9H19V3a1,1,0,0,0-2,0v2.9H12.13V3a1,1,0,1,0-2,0v2.9h0l-4,4H3a1,1,0,1,0,0,2h2.9V17H3a1,1,0,0,0,0,2h2.9v4.87H3a1,1,0,0,0,0,2h2.9v0l4.16,4.16h0V33a1,1,0,0,0,2,0v-2.9H17V33a1,1,0,0,0,2,0v-2.9h5.06V33a1,1,0,0,0,2,0v-3l4-4v0H33a1,1,0,0,0,0-2h-2.9V19Zm-4.9,6.08-3,3H10.92l-3-3V10.92l3-3H25.08l3,3Z"/><path class="cls-2" d="M27.22,22.83a3.05,3.05,0,0,0-2.48-1.52,2.42,2.42,0,0,0-1,.21c-4.61-3.43-4.05-9.15-4-9.4l.19-1.68-1.56.64c-6.63,2.7-7.24,7.59-7,10.23h-.05a3.06,3.06,0,0,0-2.49,1.52c-.42.57-.58.73-.88.73v2A3,3,0,0,0,10.38,24c.43-.57.59-.72.89-.72s.45.15.88.72a3,3,0,0,0,2.49,1.53A3,3,0,0,0,17.12,24c.43-.57.58-.72.88-.72s.46.15.89.72a3,3,0,0,0,2.48,1.53A3,3,0,0,0,23.85,24c.43-.57.59-.72.89-.72s.45.15.88.72a3,3,0,0,0,2.48,1.53v-2C27.8,23.56,27.65,23.4,27.22,22.83Zm-5.85.73c-.3,0-.46-.16-.88-.73A3.07,3.07,0,0,0,18,21.31a3,3,0,0,0-2.48,1.52c-.43.57-.59.73-.88.73s-.46-.16-.89-.73l-.25-.33h0c-.08-.25-1.81-5.65,4.15-8.9a12.49,12.49,0,0,0,4.52,9.29C21.82,23.4,21.66,23.56,21.37,23.56Z"/></svg>