<svg id="Layer_1" data-name="Layer 1" xmlns="http://www.w3.org/2000/svg" width="172" height="205" viewBox="0 0 172 205"><defs><style>.cls-1{fill:#add036;}.cls-2{fill:#0095d3;}.cls-3{fill:#61717d;}</style></defs><title>KS</title><path class="cls-1" d="M62.66,92.33a2.15,2.15,0,0,1-2.15-2.15V85.32a2.15,2.15,0,1,1,4.29,0v4.86A2.14,2.14,0,0,1,62.66,92.33Z"/><path class="cls-1" d="M54.79,106.46a2.16,2.16,0,0,1-2.15-2.15V99.45a2.15,2.15,0,1,1,4.3,0v4.86A2.15,2.15,0,0,1,54.79,106.46Z"/><path class="cls-1" d="M63.29,116.19a2.14,2.14,0,0,1-2.14-2.14v-2.66a2.15,2.15,0,0,1,4.29,0v2.66A2.14,2.14,0,0,1,63.29,116.19Z"/><path class="cls-1" d="M92.7,105.67a2.14,2.14,0,0,1-2.15-2.14V97a2.15,2.15,0,0,1,4.29,0v6.54A2.14,2.14,0,0,1,92.7,105.67Z"/><path class="cls-1" d="M87.59,127.52a2.14,2.14,0,0,1-2.14-2.14v-5a2.15,2.15,0,0,1,4.29,0v5A2.14,2.14,0,0,1,87.59,127.52Z"/><path class="cls-1" d="M72.89,107a2.14,2.14,0,0,1-2.14-2.14v-4.65a2.15,2.15,0,0,1,4.29,0v4.65A2.14,2.14,0,0,1,72.89,107Z"/><path class="cls-1" d="M72.89,128.38a2.14,2.14,0,0,1-2.14-2.14V115.47a2.15,2.15,0,1,1,4.29,0v10.77A2.14,2.14,0,0,1,72.89,128.38Z"/><path class="cls-1" d="M83,111.57a2.14,2.14,0,0,1-2.14-2.14v-2.55a2.15,2.15,0,0,1,4.29,0v2.55A2.14,2.14,0,0,1,83,111.57Z"/><path class="cls-2" d="M126.89,137.3a2.13,2.13,0,0,1-1.58-.7l-12.79-13.91L99.73,136.6A2.14,2.14,0,0,1,96,135.15V124.49a20.1,20.1,0,0,1,9.55-17.15,21.21,21.21,0,0,0-18.9-16.1l-7.85,7.85a2.14,2.14,0,0,1-3,0l0,0a19.43,19.43,0,0,1-5.25-9.39A38.07,38.07,0,0,1,42.85,52.86a2.11,2.11,0,0,1,.63-1.51A2.16,2.16,0,0,1,45,50.72H76.71a42.6,42.6,0,0,1,11,1.45,27.66,27.66,0,0,1,35.62,2.93l.08.08a2.15,2.15,0,0,1,0,3L112,69.56a42.1,42.1,0,0,1,7.2,23.66v14A20.09,20.09,0,0,1,129,124.49v10.66a2.16,2.16,0,0,1-2.15,2.15Zm-14.37-19.92a2.14,2.14,0,0,1,1.58.69l10.65,11.58v-5.16a15.82,15.82,0,0,0-8.66-14.14,2.15,2.15,0,0,1-1.17-1.91V93.22a37.9,37.9,0,0,0-7.43-22.63,2.15,2.15,0,0,1,.21-2.79l11.07-11.06a23.35,23.35,0,0,0-29.3-.53,2.13,2.13,0,0,1-1.93.37A38.24,38.24,0,0,0,76.71,55H47.2A33.77,33.77,0,0,0,72.88,85.88a2.15,2.15,0,0,1,1.61,1.74,15.17,15.17,0,0,0,2.9,6.82l6.92-6.92a2.15,2.15,0,0,1,1.59-.62,25.49,25.49,0,0,1,24.19,21.18,2.15,2.15,0,0,1-1.13,2.27,15.82,15.82,0,0,0-8.66,14.14v5.16l10.64-11.58A2.16,2.16,0,0,1,112.52,117.38Z"/><path class="cls-2" d="M52.91,77.78a2.14,2.14,0,0,1-2.14-2.15,11,11,0,0,1,11-11h17a2.15,2.15,0,1,1,0,4.29h-17a6.75,6.75,0,0,0-6.74,6.74A2.15,2.15,0,0,1,52.91,77.78Z"/><path class="cls-2" d="M96.36,60.24A2.16,2.16,0,0,1,95.3,60a38.17,38.17,0,0,0-18.82-5,2.15,2.15,0,0,1,0-4.29,42.43,42.43,0,0,1,20.94,5.51,2.14,2.14,0,0,1-1.06,4Z"/><path class="cls-1" d="M112.93,132.15h-5l-4.3,4.3h10.23a2.18,2.18,0,0,0,1.52-.63l3.38-3.39-2.91-3.16Z"/><path class="cls-1" d="M47.09,120.17V77.62a36.09,36.09,0,0,1-4.29-8.19v51.63a2.15,2.15,0,0,0,.62,1.52l13.24,13.24a2.18,2.18,0,0,0,1.52.63H93.81v-4.3H59.07Z"/><path class="cls-1" d="M128.58,63.91l-2.53-2.53-3,3,1.9,1.9v.12H125v42.49A33.64,33.64,0,0,1,129.2,113V65.42A2.13,2.13,0,0,0,128.58,63.91Z"/><path class="cls-1" d="M36.19,121h-6.5a2.15,2.15,0,0,1,0-4.29h6.5a2.15,2.15,0,0,1,0,4.29Z"/><path class="cls-1" d="M36.19,103.43h-6.5a2.15,2.15,0,0,1,0-4.3h6.5a2.15,2.15,0,0,1,0,4.3Z"/><path class="cls-1" d="M36.19,85.81h-6.5a2.15,2.15,0,0,1,0-4.29h6.5a2.15,2.15,0,0,1,0,4.29Z"/><path class="cls-1" d="M36.19,68.19h-6.5a2.15,2.15,0,0,1,0-4.29h6.5a2.15,2.15,0,0,1,0,4.29Z"/><path class="cls-1" d="M142.31,121h-6.5a2.15,2.15,0,0,1,0-4.29h6.5a2.15,2.15,0,0,1,0,4.29Z"/><path class="cls-1" d="M142.31,103.43h-6.5a2.15,2.15,0,0,1,0-4.3h6.5a2.15,2.15,0,0,1,0,4.3Z"/><path class="cls-1" d="M142.31,85.81h-6.5a2.15,2.15,0,0,1,0-4.29h6.5a2.15,2.15,0,0,1,0,4.29Z"/><path class="cls-1" d="M142.31,68.19h-6.5a2.15,2.15,0,0,1,0-4.29h6.5a2.15,2.15,0,0,1,0,4.29Z"/><path class="cls-1" d="M112.42,150.93a2.15,2.15,0,0,1-2.14-2.15v-6.49a2.15,2.15,0,1,1,4.29,0v6.49A2.15,2.15,0,0,1,112.42,150.93Z"/><path class="cls-1" d="M94.81,150.93a2.15,2.15,0,0,1-2.15-2.15v-6.49a2.15,2.15,0,1,1,4.29,0v6.49A2.15,2.15,0,0,1,94.81,150.93Z"/><path class="cls-1" d="M77.19,150.93a2.15,2.15,0,0,1-2.14-2.15v-6.49a2.15,2.15,0,1,1,4.29,0v6.49A2.15,2.15,0,0,1,77.19,150.93Z"/><path class="cls-1" d="M59.58,150.93a2.15,2.15,0,0,1-2.15-2.15v-6.49a2.15,2.15,0,1,1,4.29,0v6.49A2.15,2.15,0,0,1,59.58,150.93Z"/><path class="cls-1" d="M112.42,44.8a2.14,2.14,0,0,1-2.14-2.14v-6.5a2.15,2.15,0,0,1,4.29,0v6.5A2.14,2.14,0,0,1,112.42,44.8Z"/><path class="cls-1" d="M94.81,44.8a2.14,2.14,0,0,1-2.15-2.14v-6.5a2.15,2.15,0,0,1,4.29,0v6.5A2.14,2.14,0,0,1,94.81,44.8Z"/><path class="cls-1" d="M77.19,44.8a2.14,2.14,0,0,1-2.14-2.14v-6.5a2.15,2.15,0,0,1,4.29,0v6.5A2.14,2.14,0,0,1,77.19,44.8Z"/><path class="cls-1" d="M59.58,44.8a2.14,2.14,0,0,1-2.15-2.14v-6.5a2.15,2.15,0,0,1,4.29,0v6.5A2.14,2.14,0,0,1,59.58,44.8Z"/><path class="cls-2" d="M78.49,61.91H73a2.15,2.15,0,1,1,0-4.29h5.45a2.15,2.15,0,1,1,0,4.29Z"/><path class="cls-3" d="M40.87,162.55h1.77v3.8l3.36-3.8h2.16l-3.24,3.59,3.47,4.7H46.23l-2.55-3.43-1,1.11v2.32H40.87Z"/><path class="cls-3" d="M51,164.15v1.65H55.2v1.61H51v1.82h4.6v1.61H49.25v-8.29h6.38v1.6Z"/><path class="cls-3" d="M62,170.84l-1.89-2.69H58.76v2.69H57v-8.29h3.73a2.87,2.87,0,0,1,3.12,2.8A2.7,2.7,0,0,1,62,167.94l2,2.9Zm-3.21-4.32h1.76c.88,0,1.49-.46,1.49-1.17s-.61-1.17-1.49-1.17H58.76Z"/><path class="cls-3" d="M65.25,162.55H67l4,5.36v-5.36H72.8v8.29H71l-4-5.36v5.36H65.25Z"/><path class="cls-3" d="M76.31,164.15v1.65h4.16v1.61H76.31v1.82H80.9v1.61H74.52v-8.29H80.9v1.6Z"/><path class="cls-3" d="M88.11,169.23v1.61H82.2v-8.29H84v6.68Z"/><path class="cls-3" d="M88.72,169.61l1-1.22a4.09,4.09,0,0,0,2.72,1.08c.9,0,1.35-.41,1.35-.93s-.48-.77-1.75-1.06c-1.75-.4-3-.89-3-2.5s1.26-2.58,3.07-2.58a4.74,4.74,0,0,1,3.24,1.15l-.93,1.28a3.82,3.82,0,0,0-2.36-.92c-.76,0-1.22.4-1.22.89s.49.8,1.77,1.09c1.79.4,3,.93,3,2.46S94.43,171,92.4,171A5.32,5.32,0,0,1,88.72,169.61Z"/><path class="cls-3" d="M104.23,162.55v8.29h-1.77v-3.43H98.68v3.43H96.9v-8.29h1.78v3.25h3.78v-3.25Z"/><path class="cls-3" d="M111.43,169.53h-3.69l-.54,1.31h-2l3.38-8.29h2l3.38,8.29h-2Zm-.62-1.5-1.23-3-1.23,3Z"/><path class="cls-3" d="M119.93,170.84l-1.9-2.69h-1.31v2.69h-1.78v-8.29h3.73a2.87,2.87,0,0,1,3.13,2.8,2.7,2.7,0,0,1-1.88,2.59l2,2.9Zm-3.21-4.32h1.76c.88,0,1.49-.46,1.49-1.17s-.61-1.17-1.49-1.17h-1.76Z"/><path class="cls-3" d="M123.19,162.55H125v3.8l3.35-3.8h2.16l-3.23,3.59,3.46,4.7h-2.16L126,167.41l-1,1.11v2.32h-1.78Z"/></svg>