<svg id="Layer_1" data-name="Layer 1" xmlns="http://www.w3.org/2000/svg" width="500" height="500" viewBox="0 0 500 500"><defs><style>.cls-1{fill:#add036;}.cls-2{fill:#0095d3;}.cls-3{font-size:25.74px;fill:#61717d;font-family:Metropolis-Bold, Metropolis;font-weight:700;}</style></defs><title>logo_proposals</title><path class="cls-1" d="M200.24,224.72a4.56,4.56,0,0,1-4.57-4.57V209.78a4.58,4.58,0,0,1,9.15,0v10.37A4.57,4.57,0,0,1,200.24,224.72Z"/><path class="cls-1" d="M183.47,254.84a4.58,4.58,0,0,1-4.58-4.57V239.9a4.58,4.58,0,1,1,9.15,0v10.37A4.58,4.58,0,0,1,183.47,254.84Z"/><path class="cls-1" d="M201.59,275.6A4.57,4.57,0,0,1,197,271v-5.65a4.58,4.58,0,1,1,9.15,0V271A4.58,4.58,0,0,1,201.59,275.6Z"/><path class="cls-1" d="M264.28,253.17a4.58,4.58,0,0,1-4.58-4.58V234.67a4.58,4.58,0,1,1,9.15,0v13.92A4.57,4.57,0,0,1,264.28,253.17Z"/><path class="cls-1" d="M253.39,299.76a4.58,4.58,0,0,1-4.57-4.58V284.43a4.58,4.58,0,1,1,9.15,0v10.75A4.58,4.58,0,0,1,253.39,299.76Z"/><path class="cls-1" d="M222.06,256a4.58,4.58,0,0,1-4.58-4.58v-9.9a4.58,4.58,0,0,1,9.15,0v9.9A4.58,4.58,0,0,1,222.06,256Z"/><path class="cls-1" d="M222.06,301.58a4.57,4.57,0,0,1-4.58-4.57v-23a4.58,4.58,0,1,1,9.15,0v23A4.57,4.57,0,0,1,222.06,301.58Z"/><path class="cls-1" d="M243.53,265.75a4.58,4.58,0,0,1-4.58-4.58v-5.42a4.58,4.58,0,0,1,9.15,0v5.42A4.58,4.58,0,0,1,243.53,265.75Z"/><path class="cls-2" d="M337.18,320.59a4.53,4.53,0,0,1-3.37-1.48l-27.27-29.65-27.26,29.65a4.58,4.58,0,0,1-7.95-3.09V293.28a42.85,42.85,0,0,1,20.37-36.56,45.2,45.2,0,0,0-40.28-34.32l-16.75,16.74a4.57,4.57,0,0,1-6.4.06l-.08-.07a41.54,41.54,0,0,1-11.19-20,81.18,81.18,0,0,1-59-78.51,4.59,4.59,0,0,1,4.58-4.57h67.61a90.71,90.71,0,0,1,23.46,3.09,59,59,0,0,1,75.93,6.25l.18.18a4.57,4.57,0,0,1-.06,6.41l-24.24,24.24a89.92,89.92,0,0,1,15.35,50.44v29.74a42.84,42.84,0,0,1,20.94,36.91V316a4.56,4.56,0,0,1-4.57,4.57Zm-30.64-42.47a4.6,4.6,0,0,1,3.37,1.48l22.69,24.68v-11a33.74,33.74,0,0,0-18.45-30.14,4.59,4.59,0,0,1-2.49-4.08V226.63a80.77,80.77,0,0,0-15.84-48.24,4.58,4.58,0,0,1,.45-5.95l23.59-23.59a49.79,49.79,0,0,0-62.47-1.12,4.56,4.56,0,0,1-4.11.78,81.77,81.77,0,0,0-23.09-3.34H167.28A72,72,0,0,0,222,211a4.59,4.59,0,0,1,3.43,3.73,32.34,32.34,0,0,0,6.19,14.52l14.74-14.74a4.68,4.68,0,0,1,3.4-1.34,54.38,54.38,0,0,1,51.57,45.17,4.58,4.58,0,0,1-2.42,4.83,33.73,33.73,0,0,0-18.46,30.14v11l22.7-24.68A4.56,4.56,0,0,1,306.54,278.12Z"/><path class="cls-2" d="M179.46,193.71a4.58,4.58,0,0,1-4.57-4.58,23.54,23.54,0,0,1,23.51-23.51h36.21a4.57,4.57,0,1,1,0,9.14H198.4A14.38,14.38,0,0,0,184,189.13,4.58,4.58,0,0,1,179.46,193.71Z"/><path class="cls-2" d="M272.08,156.31a4.59,4.59,0,0,1-2.25-.59,81.47,81.47,0,0,0-40.12-10.55,4.58,4.58,0,0,1,0-9.15,90.6,90.6,0,0,1,44.63,11.74,4.57,4.57,0,0,1-2.26,8.55Z"/><path class="cls-1" d="M307.41,309.63H296.66l-9.15,9.14h21.8a4.56,4.56,0,0,0,3.23-1.34l7.22-7.21-6.2-6.74Z"/><path class="cls-1" d="M167,284.08V193.37a76.9,76.9,0,0,1-9.14-17.47V286a4.56,4.56,0,0,0,1.34,3.23l28.22,28.22a4.56,4.56,0,0,0,3.23,1.34h76v-9.14H192.59Z"/><path class="cls-1" d="M340.76,164.13l-5.38-5.39-6.47,6.47,4,4,0,.25h.14v90.6c3.37,2.86,7.37,6.49,9,8.69V167.36A4.56,4.56,0,0,0,340.76,164.13Z"/><path class="cls-1" d="M143.8,285.94H130a4.58,4.58,0,0,1,0-9.15H143.8a4.58,4.58,0,1,1,0,9.15Z"/><path class="cls-1" d="M143.8,248.38H130a4.58,4.58,0,0,1,0-9.15H143.8a4.58,4.58,0,1,1,0,9.15Z"/><path class="cls-1" d="M143.8,210.83H130a4.58,4.58,0,0,1,0-9.15H143.8a4.58,4.58,0,1,1,0,9.15Z"/><path class="cls-1" d="M143.8,173.27H130a4.58,4.58,0,0,1,0-9.15H143.8a4.58,4.58,0,1,1,0,9.15Z"/><path class="cls-1" d="M370,285.94H356.2a4.58,4.58,0,1,1,0-9.15H370a4.58,4.58,0,0,1,0,9.15Z"/><path class="cls-1" d="M370,248.38H356.2a4.58,4.58,0,1,1,0-9.15H370a4.58,4.58,0,0,1,0,9.15Z"/><path class="cls-1" d="M370,210.83H356.2a4.58,4.58,0,1,1,0-9.15H370a4.58,4.58,0,0,1,0,9.15Z"/><path class="cls-1" d="M370,173.27H356.2a4.58,4.58,0,1,1,0-9.15H370a4.58,4.58,0,0,1,0,9.15Z"/><path class="cls-1" d="M306.33,349.64a4.57,4.57,0,0,1-4.57-4.57V331.23a4.58,4.58,0,1,1,9.15,0v13.84A4.57,4.57,0,0,1,306.33,349.64Z"/><path class="cls-1" d="M268.78,349.64a4.57,4.57,0,0,1-4.58-4.57V331.23a4.58,4.58,0,1,1,9.15,0v13.84A4.57,4.57,0,0,1,268.78,349.64Z"/><path class="cls-1" d="M231.22,349.64a4.57,4.57,0,0,1-4.57-4.57V331.23a4.58,4.58,0,1,1,9.15,0v13.84A4.57,4.57,0,0,1,231.22,349.64Z"/><path class="cls-1" d="M193.67,349.64a4.57,4.57,0,0,1-4.58-4.57V331.23a4.58,4.58,0,1,1,9.15,0v13.84A4.57,4.57,0,0,1,193.67,349.64Z"/><path class="cls-1" d="M306.33,123.41a4.58,4.58,0,0,1-4.57-4.58V105a4.58,4.58,0,0,1,9.15,0v13.84A4.58,4.58,0,0,1,306.33,123.41Z"/><path class="cls-1" d="M268.78,123.41a4.58,4.58,0,0,1-4.58-4.58V105a4.58,4.58,0,0,1,9.15,0v13.84A4.58,4.58,0,0,1,268.78,123.41Z"/><path class="cls-1" d="M231.22,123.41a4.58,4.58,0,0,1-4.57-4.58V105a4.58,4.58,0,0,1,9.15,0v13.84A4.58,4.58,0,0,1,231.22,123.41Z"/><path class="cls-1" d="M193.67,123.41a4.58,4.58,0,0,1-4.58-4.58V105a4.58,4.58,0,0,1,9.15,0v13.84A4.58,4.58,0,0,1,193.67,123.41Z"/><path class="cls-2" d="M234,159.89H222.37a4.58,4.58,0,1,1,0-9.15H234a4.58,4.58,0,1,1,0,9.15Z"/><text class="cls-3" transform="translate(151.9 392.09)">KERNELSHARK</text></svg>